{"title":"A Perfect Stranger (1994) Michael Miller.flv","uid":8422215,"size":358157030,"categoryP":"video","categoryS":"movies","magnet":"?xt=urn:btih:844ff3807149c8f2f9d676ae7f08524428f84d46&amp;dn=A+Perfect+Stranger+%281994%29+Michael+Miller.flv&amp;tr=udp%3A%2F%2Ftracker.openbittorrent.com%3A80&amp;tr=udp%3A%2F%2Fopen.demonii.com%3A1337&amp;tr=udp%3A%2F%2Ftracker.coppersurfer.tk%3A6969&amp;tr=udp%3A%2F%2Fexodus.desync.com%3A6969","seeders":0,"leechers":0,"uploader":"yousef86","files":-1,"time":1367231875,"description":"General\n=======\nComplete name : A Perfect Stranger (1994) Michael Miller.flv\nFormat : Flash Video\nFile size : 342 MiB\nDuration : 1h 27mn\nOverall bit rate : 545 Kbps\nhttphostheader :\n\nVideo\n=====\nFormat : AVC\nFormat/Info : Advanced Video Codec\nFormat profile : &lt;a class=&quot;__cf_email__&quot; href=&quot;/cdn-cgi/l/email-protection&quot; data-cfemail=&quot;d29fb3bbbc929ee1fce2&quot;&gt;[email&amp;#160;protected]&lt;/a&gt;&lt;script data-cfhash='f9e31' type=&quot;text/javascript&quot;&gt;\n/* &lt;![CDATA[ */!function(){try{var t=&quot;currentScript&quot;in document?document.currentScript:function(){for(var t=document.getElementsByTagName(&quot;script&quot;),e=t.length;e--;)if(t[e].getAttribute(&quot;data-cfhash&quot;))return t[e]}();if(t&amp;&amp;t.previousSibling){var e,r,n,i,c=t.previousSibling,a=c.getAttribute(&quot;data-cfemail&quot;);if(a){for(e=&quot;&quot;,r=parseInt(a.substr(0,2),16),n=2;a.length-n;n+=2)i=parseInt(a.substr(n,2),16)^r,e+=String.fromCharCode(i);e=document.createTextNode(e),c.parentNode.replaceChild(e,c)}t.parentNode.removeChild(t);}}catch(u){}}()/* ]]&gt; */&lt;/script&gt;\nFormat settings, CABAC : Yes\nFormat settings, ReFrames : 3 frames\nFormat settings, GOP : M=1, N=50\nCodec ID : 7\nDuration : 1h 27mn\nBit rate : 408 Kbps\nWidth : 622 pixels\nHeight : 480 pixels\nDisplay aspect ratio : 1.296\nFrame rate mode : Constant\nFrame rate : 25.000 fps\nColor space : YUV\nChroma subsampling : 4:2:0\nBit depth : 8 bits\nScan type : Progressive\nBits/(Pixel*Frame) : 0.055\nStream size : 256 MiB (75%)\n\nAudio\n=====\nFormat : AAC\nFormat/Info : Advanced Audio Codec\nFormat profile : LC\nCodec ID : 10\nDuration : 1h 27mn\nBit rate : 129 Kbps\nChannel(s) : 2 channels\nChannel positions : Front: L R\nSampling rate : 44.1 KHz\nCompression mode : Lossy\nStream size : 80.6 MiB (24%)","torrent":{"xt":"urn:btih:844ff3807149c8f2f9d676ae7f08524428f84d46","amp;dn":"A+Perfect+Stranger+%281994%29+Michael+Miller.flv","amp;tr":["udp%3A%2F%2Ftracker.openbittorrent.com%3A80","udp%3A%2F%2Fopen.demonii.com%3A1337","udp%3A%2F%2Ftracker.coppersurfer.tk%3A6969","udp%3A%2F%2Fexodus.desync.com%3A6969"],"infoHash":"844ff3807149c8f2f9d676ae7f08524428f84d46","infoHashBuffer":{"type":"Buffer","data":[132,79,243,128,113,73,200,242,249,214,118,174,127,8,82,68,40,248,77,70]},"announce":[],"urlList":[]}}